<?xml version="1.0" encoding="utf-8"?>
<!-- Generator: Adobe Illustrator 22.1.0, SVG Export Plug-In . SVG Version: 6.00 Build 0)  -->
<svg version="1.1" id="Layer_1" xmlns="http://www.w3.org/2000/svg" xmlns:xlink="http://www.w3.org/1999/xlink" x="0px" y="0px"
	 viewBox="0 0 1920 923.1" style="enable-background:new 0 0 1920 923.1;" xml:space="preserve">
<style type="text/css">
	.st0{fill:#002F67;}
</style>
<g>
	<path class="st0" d="M959.1,684c-16.3-17.1-31.7-31.7-44.6-48c-14.6-18.9-9.4-34.3,13.7-43.7c18-6.9,36.9-12.9,58.3-20.6
		C970.3,558,954.9,546,940.3,534c-27.4-23.1-42.9-54.9-46.3-88.3c-5.1-45.4,12-87.4,47.1-117.4c29.1-25.7,64.3-42,105.4-37.7
		c24.9,2.6,50.6,6.9,75.4,8.6c27.4,1.7,54,0.9,81.4-0.9c6.9,0,15.4-6,17.1,2.6c2.6,10.3,3.4,21.4,0.9,31.7
		c-2.6,12-12.9,5.1-20.6,4.3c-12.9-0.9-25.7,0-41.1,0c12.9,27.4,27.4,53.1,25.7,84c-2.6,51.4-24,90-68.6,114.9
		c-28.3,15.4-59.1,26.6-89.1,39.4c-12,5.1-24,8.6-35.1,15.4c-6,3.4-13.7,12-13.7,18c0.9,6.9,7.7,15.4,14.6,18
		c11.1,5.1,24,8.6,36.9,8.6c32.6,0.9,66,0,98.6,0c11.1,0,23.1,0.9,33.4,3.4c87.4,22.3,92.6,102.9,49.7,160.3
		c-40.3,53.1-97.7,81.4-164.6,85.7c-33.4,2.6-68.6,5.1-101.1-8.6c-27.4-11.1-54-24-69.4-53.1c-19.7-38.6-12.9-75.4,23.1-101.1
		C917.1,708,937.7,697.7,959.1,684z M1056.9,849.4c6.9,0,17.1,0.9,26.6,0c33.4-3.4,65.1-13.7,84.9-42
		c26.6-38.6,23.1-95.1-37.7-110.6c-48-12-97.7,0.9-147.4-0.9c-2.6,0-5.1,2.6-7.7,3.4c-26.6,12.9-42,32.6-42.9,63.4
		c-0.9,31.7,9.4,54.9,38.6,70.3C997.7,846.9,1025.1,851.1,1056.9,849.4z M1122,438C1121.1,438,1122.9,438,1122,438
		c0-6.9,0.9-14.6,0-21.4c-4.3-36-17.1-68.6-47.1-91.7c-23.1-17.1-48-21.4-75.4-8.6c-26.6,12-37.7,33.4-39.4,60
		c-0.9,19.7-1.7,40.3,0,60c3.4,44.6,24.9,77.1,66.9,95.1c34.3,14.6,73.7-0.9,86.6-36C1119.4,477.4,1117.7,457.7,1122,438z"/>
	<path class="st0" d="M214.3,653.1c-44.6,0-88.3-0.9-132.9,0c-22.3,0.9-44.6,5.1-67.7,6c-4.3,0-9.4-4.3-13.7-6
		c3.4-3.4,6-8.6,10.3-9.4c10.3-3.4,22.3-5.1,32.6-7.7c32.6-7.7,39.4-15.4,42-48c0.9-6.9,0-14.6,0-21.4c0-128.6,0-257.1,0-385.7
		c0-6.9,0-14.6,0-21.4c-2.6-31.7-9.4-42-40.3-50.6c-9.4-2.6-19.7-3.4-29.1-6c-2.6-0.9-6-6-6-8.6c0-2.6,6-6.9,8.6-6
		c70.3,10.3,141.4,10.3,211.7,0c2.6,0,7.7,3.4,8.6,6c0,2.6-3.4,8.6-6,8.6c-8.6,1.7-17.1,0.9-25.7,2.6c-32.6,6.9-43.7,21.4-44.6,56.6
		c-0.9,60-0.9,120-0.9,180c0,71.1,1.7,143.1,0,214.3c-1.7,66,21.4,72,68.6,69.4c38.6-1.7,76.3-0.9,114.9-6
		c30-4.3,52.3-10.3,58.3-43.7c0.9-3.4,7.7-5.1,12-7.7c1.7,3.4,5.1,7.7,4.3,11.1c-21.4,82.3,3.4,75.4-84.9,74.6
		c-19.7,0-40.3-0.9-60-0.9C254.6,652.3,234,653.1,214.3,653.1L214.3,653.1z"/>
	<path class="st0" d="M722.6,599.1c-33.4,20.6-60.9,36.9-89.1,53.1c-24.9,14.6-53.1,12-78.9,6.9c-31.7-6-57.4-41.1-58.3-75.4
		c-1.7-45.4,0-90.9,0-137.1c0-23.1,0.9-45.4,0-68.6c-0.9-28.3-3.4-30.9-30.9-35.1c-9.4-1.7-18-5.1-31.7-9.4
		c37.7-15.4,70.3-27.4,102-40.3c13.7-5.1,20.6-0.9,21.4,15.4c0.9,15.4,0.9,31.7,0.9,47.1c0,66.9,0,133.7,0,201.4
		c0,29.1,10.3,53.1,40.3,62.6c10.3,3.4,23.1,6,32.6,2.6c21.4-6.9,42.9-15.4,61.7-26.6c18-11.1,30-25.7,29.1-52.3
		c-0.9-54,4.3-108,5.1-161.1c0.9-37.7-4.3-42-42.9-47.1c-2.6,0-6,0-8.6-0.9c-2.6-0.9-5.1-4.3-5.1-5.1c0.9-3.4,2.6-8.6,6-9.4
		c29.1-9.4,59.1-18,88.3-27.4c13.7-4.3,21.4-1.7,23.1,12c0.9,11.1,0.9,23.1,0.9,34.3c0,74.6,0,148.3,0,222.9c0,10.3,0,19.7,0,30
		c1.7,24,6.9,28.3,31.7,28.3c6.9,0,14.6-0.9,21.4-1.7c4.3-0.9,8.6-2.6,18.9-6.9c-6,10.3-6.9,15.4-9.4,16.3
		c-28.3,12-56.6,24.9-85.7,35.1c-20.6,6.9-31.7,0-36-20.6C726,629.1,725.1,616.3,722.6,599.1z"/>
	<path class="st0" d="M1453.7,618c-10.3,6.9-18,11.1-24.9,15.4c-31.7,22.3-66.9,30.9-104.6,27.4c-30.9-2.6-57.4-24-64.3-53.1
		c-6-27.4,5.1-59.1,30-74.6c32.6-20.6,68.6-33.4,107.1-36.9c6.9-0.9,14.6,0,21.4-0.9c36-2.6,38.6-5.1,38.6-40.3c0-27.4,0-54,0-81.4
		c0-21.4-10.3-33.4-30-42c-22.3-9.4-43.7-8.6-66-1.7c-17.1,5.1-24.9,14.6-24,34.3c0.9,36-23.1,54-58.3,46.3
		c-11.1-2.6-12.9-11.1-10.3-19.7c2.6-7.7,6-16.3,12-22.3c43.7-47.1,95.1-80.6,162.9-79.7c37.7,0,61.7,17.1,72.9,53.1
		c12,36,8.6,72.9,6,109.7c-3.4,49.7-3.4,99.4-4.3,149.1c0,14.6,8.6,24,24,24c12.9,0,25.7-1.7,38.6-1.7c4.3,0,8.6,0.9,12.9,0.9
		c-1.7,3.4-2.6,9.4-5.1,10.3c-21.4,10.3-42.9,23.1-65.1,29.1c-17.1,4.3-36-2.6-48.9-17.1C1466.6,639.4,1461.4,629.1,1453.7,618z
		 M1457.1,541.7c-0.9-6-3.4-19.7-5.1-33.4c-12,1.7-24.9,4.3-36.9,6c-4.3,0.9-8.6-0.9-12.9,0.9c-18.9,6.9-37.7,12-54.9,20.6
		c-24.9,13.7-21.4,38.6-18.9,60.9c1.7,16.3,18.9,26.6,42,28.3c26.6,1.7,49.7-6,71.1-22.3C1462.3,588.9,1454.6,568.3,1457.1,541.7z"
		/>
	<path class="st0" d="M1822.3,652.3c-69.4,0-138,0-207.4,0c-0.9-1.7-0.9-2.6-1.7-4.3c10.3-4.3,20.6-8.6,30.9-12
		c25.7-8.6,26.6-8.6,27.4-35.1c0.9-68.6,0.9-137.1,0-205.7c0-32.6-4.3-34.3-38.6-28.3c-3.4,0.9-7.7-0.9-11.1-1.7
		c2.6-4.3,3.4-10.3,6.9-12.9c27.4-20.6,54.9-40.3,82.3-60.9c16.3-12,18-12,23.1,9.4c4.3,18,6,36,9.4,57.4
		c13.7-13.7,26.6-27.4,41.1-39.4c12.9-11.1,25.7-22.3,40.3-30.9c22.3-12,38.6-8.6,53.1,8.6c19.7,22.3,15.4,52.3-9.4,68.6
		c-5.1,3.4-13.7,2.6-19.7,1.7c-3.4-0.9-6.9-4.3-10.3-6.9c-32.6-28.3-58.3-12.9-88.3,15.4c-6,6-9.4,18-9.4,26.6
		c-0.9,64.3-0.9,128.6,0,192.9c0,25.7,8.6,33.4,34.3,40.3c16.3,4.3,32.6,7.7,48.9,11.1C1823.1,648,1822.3,649.7,1822.3,652.3z"/>
	<path class="st0" d="M1438.3,780c-13.7-12.9-23.1-25.7-36-32.6c-48.9-24.9-94.3,21.4-98.6,55.7c-2.6,21.4,0.9,41.1,10.3,61.7
		c18,41.1,80.6,49.7,101.1,12.9c3.4-6,7.7-11.1,12-17.1c6,36.9,1.7,39.4-32.6,50.6c-32.6,11.1-58.3,0-84-15.4
		c-38.6-23.1-42.9-64.3-28.3-101.1c17.1-43.7,75.4-84,137.1-60.9c18,6.9,22.3,13.7,20.6,30C1440,769.7,1439.1,774,1438.3,780z"/>
	<path class="st0" d="M1770.9,804c5.1-14.6,18-24,31.7-23.1c17.1,0.9,22.3,12.9,17.1,29.1c-6,17.1-20.6,22.3-34.3,30
		c-6.9,3.4-18.9,6-19.7,11.1c-1.7,12,0,24.9,2.6,36.9c0,2.6,10.3,5.1,14.6,3.4c9.4-4.3,18.9-10.3,31.7-11.1
		c-11.1,9.4-20.6,20.6-32.6,28.3c-17.1,11.1-36,3.4-42.9-16.3c-11.1-33.4,11.1-82.3,43.7-106.3c-2.6,9.4-14.6,29.1-16.3,38.6
		c0,1.7,6.9,6.9,7.7,6c8.6-6.9,16.3-13.7,23.1-21.4c0.9-0.9-4.3-9.4-8.6-10.3C1785.4,797.1,1776.9,803.1,1770.9,804z"/>
	<path class="st0" d="M445.7,138c-1.7,5.1-1.7,12-5.1,15.4c-12.9,16.3-20.6,33.4-21.4,54c0,6-6,12-10.3,16.3
		c-2.6,2.6-7.7,3.4-11.1,5.1c-0.9-4.3-4.3-7.7-3.4-12c1.7-12.9,6-24.9,7.7-36.9c7.7-44.6,15.4-88.3,24-132.9
		c3.4-18-14.6-8.6-20.6-17.1c14.6-9.4,30-18.9,48.9-30c-8.6,49.7-16.3,96.9-24,143.1C436.3,142.3,440.6,139.7,445.7,138
		C444.9,138,445.7,138,445.7,138z"/>
	<path class="st0" d="M556.3,223.7c-14.6,9.4-35.1,0.9-41.1-14.6c-16.3-41.1,11.1-96.9,54-111.4c6-1.7,15.4-0.9,18.9,2.6
		c4.3,5.1,7.7,15.4,6,22.3c-3.4,13.7-30,35.1-48,34.3c0-1.7,18.9-12,19.7-12.9c5.1-9.4,15.4-21.4,3.4-28.3c-12-6.9-18.9,8.6-24,17.1
		c-6.9,10.3-1.7,15.4,9.4,14.6c4.3,0,24.9-12,29.1-12c-0.9,2.6-18.9,18-20.6,18.9c-6.9,3.4-19.7,5.1-20.6,10.3
		c-2.6,12-1.7,24.9,0,37.7c0,2.6,9.4,6,13.7,5.1c9.4-0.9,18-5.1,27.4-7.7"/>
	<path class="st0" d="M1533.4,816c-1.7,2.6-30.9,24.9-32.6,26.6c-6.9,4.3-24,2.6-24.9,6.9c-2.6,12-3.4,26.6,1.7,36.9
		c3.4,6,19.7,4.3,30.9,6l0.9,0.9c-5.1,6-10.3,12.9-17.1,17.1c-17.1,9.4-31.7,4.3-39.4-15.4c-12-30-3.4-57.4,12.9-83.1
		c4.3-6.9,12-12,18-18c11.1-11.1,23.1-16.3,37.7-9.4C1536,789.4,1534.3,803.1,1533.4,816l0.9-1.7c-12,6-24,12-35.1,18.9
		c1.7-3.4,4.3-6.9,5.1-11.1c0.9-7.7,0-15.4,0-23.1c-6.9,3.4-14.6,6-18.9,11.1s-5.1,12.9-8.6,21.4
		C1487.1,831.4,1526.6,816,1533.4,816z"/>
	<path class="st0" d="M368.6,198c1.7,23.1-16.3,24.9-34.3,32.6c0-19.7,7.7-41.1,7.7-58.3c0-19.7,18.9-57.4-12.9-54.9
		c-0.9,0,0-5.1,1.7-6.9C344.6,96.9,358.3,84,372,71.1c1.7,2.6,4.3,5.1,4.3,7.7c0,7.7-11.1,21.4-7.7,24.9c5.1,4.3,21.4,0.9,31.7,2.6
		c-2.6,4.3-4.3,9.4-6,9.4c-25.7,4.3-33.4,20.6-34.3,43.7c0,11.1-6.9,29.1-7.7,40.3C352.3,201.4,364.3,196.3,368.6,198L368.6,198z"/>
	<path class="st0" d="M1739.1,793.7c-30,12-30,12-33.4,42.9c-0.9,9.4-4.3,18.9-6.9,28.3c-3.4,15.4,0,17.1,25.7,10.3
		c-10.3,12-16.3,19.7-24,26.6c-6,5.1-14.6,12.9-19.7,12c-12-2.6-11.1-15.4-9.4-24.9c4.3-23.1,9.4-46.3,14.6-69.4
		c1.7-7.7,4.3-17.1-7.7-20.6c-1.7,0-1.7-5.1-2.6-7.7c18-0.9,17.1-20.6,28.3-29.1c3.4-2.6,6.9-3.4,11.1-5.1c0.9,4.3,2.6,9.4,1.7,12.9
		C1705.7,792.9,1731.4,785.1,1739.1,793.7z"/>
	<path class="st0" d="M1589.1,833.1c0-4.3-6-7.7-4.3-10.3c12-12.9,32.6-49.7,52.3-41.1c18.9,8.6,7.7,31.7,3.4,49.7
		c-4.3,16.3-7.7,32.6-12,52.3c9.4-6,15.4-10.3,24.9-16.3c-3.4,21.4-18,30.9-30,42c-2.6,2.6-11.1,3.4-13.7,1.7
		c-3.4-2.6-6.9-9.4-6-14.6c2.6-16.3,8.6-32.6,11.1-48.9c2.6-12,2.6-24.9,4.3-41.1c-11.1,6.9-30.9,18-38.6,23.1L1589.1,833.1z"/>
	<path class="st0" d="M424.3,154.3c0-19.7,37.7-44.6,49.7-55.7c10.3-9.4,24-2.6,22.3,11.1c-3.4,24.9-9.4,49.7-13.7,73.7
		c-0.9,2.6-0.9,5.1-1.7,11.1c7.7-1.7,14.6-3.4,28.3-6.9c-13.7,14.6-23.1,24.9-32.6,34.3c-3.4,2.6-10.3,5.1-13.7,3.4
		c-3.4-2.6-7.7-9.4-6.9-13.7c2.6-16.3,7.7-32.6,11.1-48.9c2.6-12,3.4-24.9,6-41.1c-12,6.9-46.3,34.3-54,38.6L424.3,154.3z"/>
	<path class="st0" d="M1596,819.4c-9.4,27.4-19.7,59.1-29.1,85.7c-0.9,3.4-5.1,6-8.6,8.6c-1.7,1.7-6,2.6-7.7,1.7
		c-2.6-1.7-6.9-6-6.9-8.6c3.4-16.3,7.7-32.6,11.1-48.9c1.7-7.7,2.6-16.3,4.3-24.9c4.3-18.9-5.1-16.3-17.1-12
		c-0.9,0.9-5.1-5.1-7.7-7.7l-0.9,1.7c11.1-9.4,22.3-19.7,33.4-29.1c2.6-2.6,9.4-5.1,10.3-3.4c3.4,2.6,6.9,7.7,7.7,12.9
		c0.9,9.4,0.9,19.7,0.9,29.1c-1.7,0.9-4.3,1.7-6,1.7c0.9,0.9,1.7,2.6,2.6,3.4c0.9-2.6,1.7-4.3,2.6-6.9c3.4,0,6-3.4,8.6-3.4
		L1596,819.4z"/>
	<path class="st0" d="M1876.3,823.7c-6,25.7-10.3,51.4-18,77.1c-1.7,6.9-12.9,11.1-27.4,22.3c7.7-35.1,12.9-60,18-85.7
		c3.4-17.1,2.6-18.9-26.6-15.4c17.1-14.6,30-26.6,46.3-40.3c2.6,8.6,5.1,17.1,8.6,25.7l0.9-0.9
		C1866,811.7,1866.9,818.6,1876.3,823.7L1876.3,823.7z"/>
	<path class="st0" d="M1876.3,807.4c6.9-7.7,12.9-18,22.3-23.1c5.1-3.4,14.6,0.9,21.4,2.6c-2.6,6.9-2.6,17.1-7.7,20.6
		c-10.3,7.7-24,11.1-36,17.1l0.9,0.9c0-6,0-12,0-18H1876.3z"/>
	<path class="st0" d="M368.6,198L368.6,198"/>
	<path class="st0" d="M1508.6,892.3L1508.6,892.3"/>
	<path class="st0" d="M1587.4,831.4c-0.9,2.6-3.4-4.3-4.3-1.7c-0.9-0.9-1.7-2.6-2.6-3.4c1.7-0.9,4.3-1.7,6-1.7L1587.4,831.4z"/>
	<path class="st0" d="M1877.1,805.7c0,6,0,12,0,18C1866.9,818.6,1866,811.7,1877.1,805.7z"/>
</g>
</svg>
